<svg width="25" height="25" viewBox="0 0 25 25" fill="none" xmlns="http://www.w3.org/2000/svg">
<path d="M12 0C5.38462 0 0 5.38462 0 12C0 18.6154 5.38462 24 12 24C18.6154 24 24 18.6154 24 12C24 5.38462 18.6154 0 12 0ZM6.21538 21.0769C6.30769 17.8769 8.95385 15.1077 12 15.1077C15.0462 15.1077 17.6923 17.8769 17.7846 21.0769C16.1231 22.1538 14.1231 22.7692 12 22.7692C9.87692 22.7692 7.87692 22.1538 6.21538 21.0769ZM9.29231 10.4923C9.29231 9.01538 10.4923 7.78462 12 7.78462C13.5077 7.78462 14.7077 8.98462 14.7077 10.4923C14.7077 12 13.5077 13.2 12 13.2C10.4923 13.2 9.29231 11.9692 9.29231 10.4923ZM18.9538 20.2154C18.5538 17.2308 16.3692 14.7692 13.6 14.0615C14.9538 13.4462 15.9077 12.0615 15.9077 10.4923C15.9077 8.33846 14.1538 6.55385 11.9692 6.55385C9.78462 6.55385 8.03077 8.30769 8.03077 10.4923C8.03077 12.0923 8.98462 13.4462 10.3385 14.0615C7.56923 14.7692 5.41539 17.2308 4.98462 20.2154C2.70769 18.2462 1.23077 15.2923 1.23077 12C1.23077 6.06154 6.06154 1.23077 12 1.23077C17.9385 1.23077 22.7692 6.06154 22.7692 12C22.7692 15.2923 21.2923 18.2462 18.9538 20.2154Z" fill="#959BAD"/>
</svg>
