<svg width="40" height="42" viewBox="" fill="none" xmlns="http://www.w3.org/2000/svg">
<path d="M16.9964 41.2753L5.23864 34.4403L9.45949 31.9866L19.1068 37.5948C19.463 37.8019 19.9018 37.8019 20.2579 37.5948L30.0199 31.9199L34.2408 34.3736L22.3684 41.2753C20.7063 42.2416 18.6585 42.2416 16.9964 41.2753Z" fill="#262B38"/>
<path d="M29.5235 26.7022L19.7793 21.0376L10.0351 26.7022V31.5713L19.8471 25.8673L29.5235 31.4924V26.7022Z" fill="#262B38"/>
<path d="M39.5551 11.586L39.5551 25.2561L35.3342 22.8025V11.586C35.3342 11.1719 35.1148 10.7893 34.7587 10.5822L24.9967 4.90736V0L30.9329 3.45086L36.8691 6.90172C38.5312 7.86794 39.5551 9.65359 39.5551 11.586Z" fill="#262B38"/>
<path d="M20.7571 7.94916V19.2782L30.5013 24.9428L34.6893 22.5082L24.8772 16.8042V5.55402L20.7571 7.94916Z" fill="#262B38"/>
<path d="M1.10288e-06 11.586L0 25.2561L4.22085 22.8025V11.586C4.22085 11.1719 4.44026 10.7893 4.79642 10.5822L14.5584 4.90736V0L2.686 6.90172C1.0239 7.86794 1.64673e-06 9.65359 1.10288e-06 11.586Z" fill="#262B38"/>
<path d="M18.798 7.94916V19.2782L9.0538 24.9428L4.86582 22.5082L14.6779 16.8042V5.55402L18.798 7.94916Z" fill="#262B38"/>
</svg>