<svg width="25" height="24" viewBox="0 0 25 24" fill="none" xmlns="http://www.w3.org/2000/svg">
<path d="M19.6659 15.3729H9.36848C9.11983 15.3729 8.89888 15.2141 8.81962 14.9782L5.92942 6.37344C5.92636 6.36507 5.92342 6.35648 5.92082 6.34788L5.09379 3.88646C4.99146 3.58206 4.71838 3.36722 4.39827 3.33941L2.27912 3.156C1.96048 3.12863 1.7246 2.84798 1.75219 2.52934C1.7799 2.21092 2.06112 1.9721 2.37886 2.00263L4.49822 2.18604C5.27765 2.25366 5.94219 2.77629 6.1913 3.51761L6.8901 5.59729H22.0989C22.6 5.59729 23.068 5.82073 23.3829 6.21061C23.6977 6.60027 23.818 7.10481 23.7127 7.59465L22.54 13.0508C22.2508 14.3963 21.042 15.3729 19.6659 15.3729ZM9.78471 14.215H19.6659C20.5001 14.215 21.2327 13.6229 21.4079 12.8074L22.5806 7.35131C22.6237 7.15117 22.5374 7.00666 22.4823 6.93814C22.427 6.86984 22.3037 6.75518 22.0989 6.75518H7.27908L9.78471 14.215Z" fill="#959BAD"/>
<path d="M20.8715 18.0689H8.48025C7.41768 18.0689 6.55322 17.2043 6.55322 16.1419C6.55322 15.0794 7.41768 14.2148 8.48025 14.2148H9.36845C9.68823 14.2148 9.9474 14.474 9.9474 14.7938C9.9474 15.1136 9.68823 15.3727 9.36845 15.3727H8.48025C8.0561 15.3727 7.71111 15.7178 7.71111 16.1419C7.71111 16.5659 8.0561 16.911 8.48025 16.911H20.8715C21.1913 16.911 21.4504 17.1702 21.4504 17.49C21.4504 17.8097 21.1913 18.0689 20.8715 18.0689Z" fill="#959BAD"/>
<path d="M20.8715 21.2775C19.6681 21.2775 18.689 20.2983 18.689 19.0947C18.689 17.8911 19.6681 16.9121 20.8715 16.9121C22.0751 16.9121 23.0542 17.8911 23.0542 19.0947C23.0542 20.2983 22.0751 21.2775 20.8715 21.2775ZM20.8715 18.07C20.3065 18.07 19.8469 18.5298 19.8469 19.0947C19.8469 19.6598 20.3065 20.1196 20.8715 20.1196C21.4366 20.1196 21.8963 19.6598 21.8963 19.0947C21.8963 18.5298 21.4366 18.07 20.8715 18.07Z" fill="#959BAD"/>
<path d="M11.4683 21.2775C10.2647 21.2775 9.28558 20.2983 9.28558 19.0947C9.28558 17.8911 10.2647 16.9121 11.4683 16.9121C12.6718 16.9121 13.651 17.8911 13.651 19.0947C13.651 20.2983 12.6718 21.2775 11.4683 21.2775ZM11.4683 18.07C10.9032 18.07 10.4435 18.5298 10.4435 19.0947C10.4435 19.6598 10.9032 20.1196 11.4683 20.1196C12.0333 20.1196 12.4931 19.6598 12.4931 19.0947C12.4931 18.5298 12.0333 18.07 11.4683 18.07Z" fill="#959BAD"/>
</svg>
