<svg width="25" height="25" viewBox="0 0 25 25" fill="none" xmlns="http://www.w3.org/2000/svg">
<path d="M24.25 3.5H1.75C1.336 3.5 1 3.164 1 2.75C1 2.336 1.336 2 1.75 2H24.25C24.6647 2 25 2.336 25 2.75C25 3.164 24.6647 3.5 24.25 3.5Z" fill="#959BAD"/>
<path d="M7.75 17H1.75C1.336 17 1 16.6647 1 16.25C1 15.8353 1.336 15.5 1.75 15.5H7.75C8.164 15.5 8.5 15.8353 8.5 16.25C8.5 16.6647 8.164 17 7.75 17Z" fill="#959BAD"/>
<path d="M7.75 12.5H1.75C1.336 12.5 1 12.164 1 11.75C1 11.336 1.336 11 1.75 11H7.75C8.164 11 8.5 11.336 8.5 11.75C8.5 12.164 8.164 12.5 7.75 12.5Z" fill="#959BAD"/>
<path d="M10 8H1.75C1.336 8 1 7.664 1 7.25C1 6.836 1.336 6.5 1.75 6.5H10C10.414 6.5 10.75 6.836 10.75 7.25C10.75 7.664 10.414 8 10 8Z" fill="#959BAD"/>
<path d="M19 17.75C15.6918 17.75 13 15.0582 13 11.75C13 8.44175 15.6918 5.75 19 5.75C22.3082 5.75 25 8.44175 25 11.75C25 15.0582 22.3082 17.75 19 17.75ZM19 7.25C16.5182 7.25 14.5 9.26825 14.5 11.75C14.5 14.2318 16.5182 16.25 19 16.25C21.4818 16.25 23.5 14.2318 23.5 11.75C23.5 9.26825 21.4818 7.25 19 7.25Z" fill="#959BAD"/>
<path d="M8.5 23.0002C8.308 23.0002 8.116 22.9267 7.96975 22.7804C7.6765 22.4872 7.6765 22.0132 7.96975 21.7199L14.7198 14.9699C15.013 14.6767 15.487 14.6767 15.7803 14.9699C16.0735 15.2632 16.0735 15.7372 15.7803 16.0304L9.03025 22.7804C8.884 22.9267 8.692 23.0002 8.5 23.0002Z" fill="#959BAD"/>
</svg>
