<svg width="26" height="25" viewBox="0 0 26 25" fill="none" xmlns="http://www.w3.org/2000/svg">
<path d="M24.7718 9.77637L24.7721 9.77662C25.1027 10.0043 25.1061 10.3947 24.9491 10.6647C24.8704 10.8002 24.749 10.9103 24.6022 10.9573C24.4537 11.0047 24.2844 10.9858 24.1165 10.8721L24.7718 9.77637ZM24.7718 9.77637L13.3199 2.04038L13.3199 2.04033L13.3178 2.03906C13.2218 1.9808 13.1119 1.95 12.9998 1.95C12.8878 1.95 12.7779 1.9808 12.6819 2.03906L12.6818 2.03901L12.6798 2.04039L1.23549 9.77638L1.23545 9.77641C0.899864 10.0037 0.892717 10.3941 1.04746 10.6659C1.12505 10.8023 1.24537 10.9136 1.39126 10.9625C1.5388 11.0119 1.70755 10.9957 1.87512 10.8852L1.87558 10.8849L4.65487 9.0068L24.7718 9.77637ZM21.5395 9.1299V21.5308V21.5316C21.5373 21.6681 21.4829 21.7987 21.3874 21.8955C21.2919 21.9923 21.1629 22.0478 21.0276 22.05L21.0268 22.05L14.804 22.05C14.7353 22.05 14.6673 22.0362 14.604 22.0095C14.5406 21.9828 14.4831 21.9437 14.4348 21.8944C14.3865 21.8452 14.3483 21.7867 14.3224 21.7225C14.2965 21.6584 14.2833 21.5897 14.2837 21.5204V21.5205H14.3337L14.2837 21.5202L21.5395 9.1299ZM21.5395 9.1299L24.1165 10.872L21.5395 9.1299ZM14.2837 17.1551H14.3337V17.1051H14.2837V17.1551ZM11.8481 17.1051H11.8981V17.1551H11.8481V17.1051ZM11.8981 21.5202L11.8481 21.5205H11.8981V21.5204C11.8988 21.6574 11.8468 21.7895 11.7529 21.8885C11.6589 21.9875 11.5303 22.0455 11.3946 22.05L11.3929 22.05L5.17013 22.05H5.16958C5.03185 22.0485 4.90045 21.9918 4.80405 21.8924C4.70772 21.7931 4.65416 21.6594 4.65487 21.5204C4.65487 21.5203 4.65487 21.5203 4.65487 21.5202L4.70487 21.5205L11.8981 21.5202ZM5.17013 22H11.3929H5.17013ZM20.514 8.4368V20.9987H15.3192L15.3192 16.6358L15.3192 16.635C15.3171 16.4984 15.2626 16.3679 15.1671 16.2711C15.0717 16.1743 14.9426 16.1188 14.8073 16.1166H14.8065L11.3929 16.1166L11.3921 16.1166C11.2568 16.1188 11.1278 16.1743 11.0323 16.2711C10.9368 16.3679 10.8824 16.4984 10.8802 16.635V16.6358V20.9987H5.68286V8.30075L11.8558 4.12839L11.8278 4.08697L11.8558 4.12839C11.8835 4.10972 11.9622 4.06386 12.0702 4.0009C12.1488 3.9551 12.2429 3.90025 12.3442 3.84023C12.5698 3.70653 12.8282 3.54878 13.0156 3.41563C13.1018 3.47798 13.2068 3.53615 13.3039 3.58837C13.3189 3.59644 13.3337 3.60435 13.3482 3.61211C13.4411 3.66186 13.5218 3.70507 13.5734 3.74273L13.5734 3.74275L13.5749 3.74374L19.4057 7.69507L19.406 7.69523L20.514 8.4368Z" fill="#959BAD" stroke="#959BAD" stroke-width="0.1"/>
</svg>
